{
    "asset" : {
        "generator" : "Khronos glTF Blender I/O v1.8.19",
        "version" : "2.0"
    },
    "scene" : 0,
    "scenes" : [
        {
            "name" : "Scene",
            "nodes" : [
                0
            ]
        }
    ],
    "nodes" : [
        {
            "mesh" : 0,
            "name" : "\u52a8\u7269_\u6591\u9e20\uff08\u5c55\u7fc5\uff09"
        }
    ],
    "materials" : [
        {
            "doubleSided" : true,
            "name" : "Mat3d66-4765576-11-77223",
            "pbrMetallicRoughness" : {
                "baseColorTexture" : {
                    "index" : 0
                },
                "metallicFactor" : 0,
                "roughnessFactor" : 0.9015747904777527
            }
        }
    ],
    "meshes" : [
        {
            "name" : "Obj3d66-4765576-10-252",
            "primitives" : [
                {
                    "attributes" : {
                        "POSITION" : 0,
                        "NORMAL" : 1,
                        "TEXCOORD_0" : 2
                    },
                    "indices" : 3,
                    "material" : 0
                }
            ]
        }
    ],
    "textures" : [
        {
            "sampler" : 0,
            "source" : 0
        }
    ],
    "images" : [
        {
            "bufferView" : 4,
            "mimeType" : "image/png",
            "name" : "3d66Model-4765576-files-3"
        }
    ],
    "accessors" : [
        {
            "bufferView" : 0,
            "componentType" : 5126,
            "count" : 5907,
            "max" : [
                0.38693952560424805,
                0.25326618552207947,
                0.14391440153121948
            ],
            "min" : [
                -0.38693952560424805,
                -7.450580596923828e-09,
                -0.14391440153121948
            ],
            "type" : "VEC3"
        },
        {
            "bufferView" : 1,
            "componentType" : 5126,
            "count" : 5907,
            "type" : "VEC3"
        },
        {
            "bufferView" : 2,
            "componentType" : 5126,
            "count" : 5907,
            "type" : "VEC2"
        },
        {
            "bufferView" : 3,
            "componentType" : 5123,
            "count" : 35040,
            "type" : "SCALAR"
        }
    ],
    "bufferViews" : [
        {
            "buffer" : 0,
            "byteLength" : 70884,
            "byteOffset" : 0
        },
        {
            "buffer" : 0,
            "byteLength" : 70884,
            "byteOffset" : 70884
        },
        {
            "buffer" : 0,
            "byteLength" : 47256,
            "byteOffset" : 141768
        },
        {
            "buffer" : 0,
            "byteLength" : 70080,
            "byteOffset" : 189024
        },
        {
            "buffer" : 0,
            "byteLength" : 197967,
            "byteOffset" : 259104
        }
    ],
    "samplers" : [
        {
            "magFilter" : 9729,
            "minFilter" : 9987
        }
    ],
    "buffers" : [
        {
            "byteLength" : 457072,
            "uri" : "data:application/octet-stream;base64,"
        }
    ]
}
