{
    "asset" : {
        "generator" : "Khronos glTF Blender I/O v1.8.19",
        "version" : "2.0"
    },
    "scene" : 0,
    "scenes" : [
        {
            "name" : "Scene",
            "nodes" : [
                0
            ]
        }
    ],
    "nodes" : [
        {
            "mesh" : 0,
            "name" : "\u52a8\u7269_\u6591\u9a6c",
            "rotation" : [
                0,
                0.1529858261346817,
                0,
                0.9882283806800842
            ]
        }
    ],
    "materials" : [
        {
            "doubleSided" : true,
            "name" : "Mat3d66-811697-21-2362",
            "pbrMetallicRoughness" : {
                "baseColorTexture" : {
                    "index" : 0
                },
                "metallicFactor" : 0,
                "roughnessFactor" : 0.7362204790115356
            }
        }
    ],
    "meshes" : [
        {
            "name" : "Obj3d66-811697-11-609",
            "primitives" : [
                {
                    "attributes" : {
                        "POSITION" : 0,
                        "NORMAL" : 1,
                        "TEXCOORD_0" : 2,
                        "TEXCOORD_1" : 3,
                        "TEXCOORD_2" : 4,
                        "TEXCOORD_3" : 5,
                        "TEXCOORD_4" : 6,
                        "TEXCOORD_5" : 7
                    },
                    "indices" : 8,
                    "material" : 0
                }
            ]
        }
    ],
    "textures" : [
        {
            "sampler" : 0,
            "source" : 0
        }
    ],
    "images" : [
        {
            "bufferView" : 9,
            "mimeType" : "image/jpeg",
            "name" : "3d66Model-811697-files-9"
        }
    ],
    "accessors" : [
        {
            "bufferView" : 0,
            "componentType" : 5126,
            "count" : 1407,
            "max" : [
                0.5479456186294556,
                1.5809499025344849,
                1.162999153137207
            ],
            "min" : [
                -0.6453233957290649,
                -1.1641532182693481e-09,
                -1.141257882118225
            ],
            "type" : "VEC3"
        },
        {
            "bufferView" : 1,
            "componentType" : 5126,
            "count" : 1407,
            "type" : "VEC3"
        },
        {
            "bufferView" : 2,
            "componentType" : 5126,
            "count" : 1407,
            "type" : "VEC2"
        },
        {
            "bufferView" : 3,
            "componentType" : 5126,
            "count" : 1407,
            "type" : "VEC2"
        },
        {
            "bufferView" : 4,
            "componentType" : 5126,
            "count" : 1407,
            "type" : "VEC2"
        },
        {
            "bufferView" : 5,
            "componentType" : 5126,
            "count" : 1407,
            "type" : "VEC2"
        },
        {
            "bufferView" : 6,
            "componentType" : 5126,
            "count" : 1407,
            "type" : "VEC2"
        },
        {
            "bufferView" : 7,
            "componentType" : 5126,
            "count" : 1407,
            "type" : "VEC2"
        },
        {
            "bufferView" : 8,
            "componentType" : 5123,
            "count" : 6267,
            "type" : "SCALAR"
        }
    ],
    "bufferViews" : [
        {
            "buffer" : 0,
            "byteLength" : 16884,
            "byteOffset" : 0
        },
        {
            "buffer" : 0,
            "byteLength" : 16884,
            "byteOffset" : 16884
        },
        {
            "buffer" : 0,
            "byteLength" : 11256,
            "byteOffset" : 33768
        },
        {
            "buffer" : 0,
            "byteLength" : 11256,
            "byteOffset" : 45024
        },
        {
            "buffer" : 0,
            "byteLength" : 11256,
            "byteOffset" : 56280
        },
        {
            "buffer" : 0,
            "byteLength" : 11256,
            "byteOffset" : 67536
        },
        {
            "buffer" : 0,
            "byteLength" : 11256,
            "byteOffset" : 78792
        },
        {
            "buffer" : 0,
            "byteLength" : 11256,
            "byteOffset" : 90048
        },
        {
            "buffer" : 0,
            "byteLength" : 12534,
            "byteOffset" : 101304
        },
        {
            "buffer" : 0,
            "byteLength" : 733715,
            "byteOffset" : 113840
        }
    ],
    "samplers" : [
        {
            "magFilter" : 9729,
            "minFilter" : 9987
        }
    ],
    "buffers" : [
        {
            "byteLength" : 847556,
            "uri" : "data:application/octet-stream;base64,"
        }
    ]
}
